<svg id='Shopping_Catergories_Sofa_24' width='24' height='24' viewBox='0 0 24 24' xmlns='http://www.w3.org/2000/svg' xmlns:xlink='http://www.w3.org/1999/xlink'><rect width='24' height='24' stroke='none' fill='#000000' opacity='0'/>


<g transform="matrix(1.43 0 0 1.43 12 12)" >
<g style="" >
<g transform="matrix(1 0 0 1 0 0.75)" >
<path style="stroke: none; stroke-width: 1; stroke-dasharray: none; stroke-linecap: butt; stroke-dashoffset: 0; stroke-linejoin: miter; stroke-miterlimit: 4; fill: rgb(137,220,255); fill-rule: evenodd; opacity: 1;" transform=" translate(-7, -7.75)" d="M 3 4.5 L 3 7.5 C 3 8.05228 3.44772 8.5 4 8.5 L 10 8.5 C 10.5523 8.5 11 8.05228 11 7.5 L 11 4.5 L 12.5 4.5 C 12.7652 4.5 13.0196 4.60536 13.2071 4.79289 C 13.3946 4.98043 13.5 5.23478 13.5 5.5 L 13.5 10 C 13.5 10.2652 13.3946 10.5196 13.2071 10.7071 C 13.0196 10.8946 12.7652 11 12.5 11 L 1.5 11 C 1.23478 11 0.98043 10.8946 0.792893 10.7071 C 0.605357 10.5196 0.5 10.2652 0.5 10 L 0.5 5.5 C 0.5 5.23478 0.605357 4.98043 0.792893 4.79289 C 0.98043 4.60536 1.23478 4.5 1.5 4.5 L 3 4.5 Z" stroke-linecap="round" />
</g>
<g transform="matrix(1 0 0 1 0 -2)" >
<path style="stroke: rgb(38,133,245); stroke-width: 1; stroke-dasharray: none; stroke-linecap: round; stroke-dashoffset: 0; stroke-linejoin: round; stroke-miterlimit: 4; fill: rgb(137,220,255); fill-rule: nonzero; opacity: 1;" transform=" translate(-7, -5)" d="M 10 1.5 L 4 1.5 C 3.44772 1.5 3 1.94772 3 2.5 L 3 7.5 C 3 8.05228 3.44772 8.5 4 8.5 L 10 8.5 C 10.5523 8.5 11 8.05228 11 7.5 L 11 2.5 C 11 1.94772 10.5523 1.5 10 1.5 Z" stroke-linecap="round" />
</g>
<g transform="matrix(1 0 0 1 0 0.75)" >
<path style="stroke: rgb(38,133,245); stroke-width: 1; stroke-dasharray: none; stroke-linecap: round; stroke-dashoffset: 0; stroke-linejoin: round; stroke-miterlimit: 4; fill: none; fill-rule: nonzero; opacity: 1;" transform=" translate(-7, -7.75)" d="M 3 4.5 L 1.5 4.5 C 1.23478 4.5 0.98043 4.60536 0.792893 4.79289 C 0.605357 4.98043 0.5 5.23478 0.5 5.5 L 0.5 10 C 0.5 10.2652 0.605357 10.5196 0.792893 10.7071 C 0.98043 10.8946 1.23478 11 1.5 11 L 12.5 11 C 12.7652 11 13.0196 10.8946 13.2071 10.7071 C 13.3946 10.5196 13.5 10.2652 13.5 10 L 13.5 5.5 C 13.5 5.23478 13.3946 4.98043 13.2071 4.79289 C 13.0196 4.60536 12.7652 4.5 12.5 4.5 L 11 4.5" stroke-linecap="round" />
</g>
<g transform="matrix(1 0 0 1 -3.25 5.25)" >
<path style="stroke: rgb(38,133,245); stroke-width: 1; stroke-dasharray: none; stroke-linecap: round; stroke-dashoffset: 0; stroke-linejoin: round; stroke-miterlimit: 4; fill: none; fill-rule: nonzero; opacity: 1;" transform=" translate(-3.75, -12.25)" d="M 4 11 L 3.5 13.5" stroke-linecap="round" />
</g>
<g transform="matrix(1 0 0 1 3.25 5.25)" >
<path style="stroke: rgb(38,133,245); stroke-width: 1; stroke-dasharray: none; stroke-linecap: round; stroke-dashoffset: 0; stroke-linejoin: round; stroke-miterlimit: 4; fill: none; fill-rule: nonzero; opacity: 1;" transform=" translate(-10.25, -12.25)" d="M 10 11 L 10.5 13.5" stroke-linecap="round" />
</g>
</g>
</g>
</svg>