<svg id='Dresser_Double_Door_24' width='24' height='24' viewBox='0 0 24 24' xmlns='http://www.w3.org/2000/svg' xmlns:xlink='http://www.w3.org/1999/xlink'><rect width='24' height='24' stroke='none' fill='#000000' opacity='0'/>


<g transform="matrix(0.83 0 0 0.83 12 12)" >
<g style="" >
<g transform="matrix(1 0 0 1 -9.5 10.24)" >
<path style="stroke: rgb(0,0,0); stroke-width: 1; stroke-dasharray: none; stroke-linecap: round; stroke-dashoffset: 0; stroke-linejoin: round; stroke-miterlimit: 4; fill: none; fill-rule: nonzero; opacity: 1;" transform=" translate(-2.5, -22.24)" d="M 2.5 21.2361 L 2.5 23.2521" stroke-linecap="round" />
</g>
<g transform="matrix(1 0 0 1 9.5 10.24)" >
<path style="stroke: rgb(0,0,0); stroke-width: 1; stroke-dasharray: none; stroke-linecap: round; stroke-dashoffset: 0; stroke-linejoin: round; stroke-miterlimit: 4; fill: none; fill-rule: nonzero; opacity: 1;" transform=" translate(-21.5, -22.24)" d="M 21.5 21.2361 L 21.5 23.2521" stroke-linecap="round" />
</g>
<g transform="matrix(1 0 0 1 0 0.25)" >
<path style="stroke: rgb(0,0,0); stroke-width: 1; stroke-dasharray: none; stroke-linecap: round; stroke-dashoffset: 0; stroke-linejoin: round; stroke-miterlimit: 4; fill: none; fill-rule: nonzero; opacity: 1;" transform=" translate(-12, -12.25)" d="M 21.5 2.74796 L 2.5 2.74796 L 2.5 21.748 L 21.5 21.748 L 21.5 2.74796 Z" stroke-linecap="round" />
</g>
<g transform="matrix(1 0 0 1 0 -10.25)" >
<path style="stroke: rgb(0,0,0); stroke-width: 1; stroke-dasharray: none; stroke-linecap: round; stroke-dashoffset: 0; stroke-linejoin: round; stroke-miterlimit: 4; fill: none; fill-rule: nonzero; opacity: 1;" transform=" translate(-12, -1.75)" d="M 23 0.747955 L 1 0.747955 C 0.723858 0.747955 0.5 0.971813 0.5 1.24796 L 0.5 2.24796 C 0.5 2.5241 0.723858 2.74796 1 2.74796 L 23 2.74796 C 23.2761 2.74796 23.5 2.5241 23.5 2.24796 L 23.5 1.24796 C 23.5 0.971813 23.2761 0.747955 23 0.747955 Z" stroke-linecap="round" />
</g>
<g transform="matrix(1 0 0 1 0 4.75)" >
<path style="stroke: rgb(0,0,0); stroke-width: 1; stroke-dasharray: none; stroke-linecap: round; stroke-dashoffset: 0; stroke-linejoin: round; stroke-miterlimit: 4; fill: none; fill-rule: nonzero; opacity: 1;" transform=" translate(-12, -16.75)" d="M 2.5 16.748 L 21.5 16.748" stroke-linecap="round" />
</g>
<g transform="matrix(1 0 0 1 -4.5 -2.25)" >
<path style="stroke: rgb(0,0,0); stroke-width: 1; stroke-dasharray: none; stroke-linecap: round; stroke-dashoffset: 0; stroke-linejoin: round; stroke-miterlimit: 4; fill: none; fill-rule: nonzero; opacity: 1;" transform=" translate(-7.5, -9.75)" d="M 10 4.74796 L 5 4.74796 C 4.72386 4.74796 4.5 4.97181 4.5 5.24796 L 4.5 14.248 C 4.5 14.5241 4.72386 14.748 5 14.748 L 10 14.748 C 10.2761 14.748 10.5 14.5241 10.5 14.248 L 10.5 5.24796 C 10.5 4.97181 10.2761 4.74796 10 4.74796 Z" stroke-linecap="round" />
</g>
<g transform="matrix(1 0 0 1 4.5 -2.25)" >
<path style="stroke: rgb(0,0,0); stroke-width: 1; stroke-dasharray: none; stroke-linecap: round; stroke-dashoffset: 0; stroke-linejoin: round; stroke-miterlimit: 4; fill: none; fill-rule: nonzero; opacity: 1;" transform=" translate(-16.5, -9.75)" d="M 19 4.74796 L 14 4.74796 C 13.7239 4.74796 13.5 4.97181 13.5 5.24796 L 13.5 14.248 C 13.5 14.5241 13.7239 14.748 14 14.748 L 19 14.748 C 19.2761 14.748 19.5 14.5241 19.5 14.248 L 19.5 5.24796 C 19.5 4.97181 19.2761 4.74796 19 4.74796 Z" stroke-linecap="round" />
</g>
<g transform="matrix(1 0 0 1 -4.13 -2.75)" >
<path style="stroke: rgb(0,0,0); stroke-width: 1; stroke-dasharray: none; stroke-linecap: butt; stroke-dashoffset: 0; stroke-linejoin: miter; stroke-miterlimit: 4; fill: none; fill-rule: nonzero; opacity: 1;" transform=" translate(-7.88, -9.25)" d="M 8 9.49796 C 7.86193 9.49796 7.75 9.38603 7.75 9.24796 C 7.75 9.10988 7.86193 8.99796 8 8.99796" stroke-linecap="round" />
</g>
<g transform="matrix(1 0 0 1 -3.88 -2.75)" >
<path style="stroke: rgb(0,0,0); stroke-width: 1; stroke-dasharray: none; stroke-linecap: butt; stroke-dashoffset: 0; stroke-linejoin: miter; stroke-miterlimit: 4; fill: none; fill-rule: nonzero; opacity: 1;" transform=" translate(-8.13, -9.25)" d="M 8 9.49796 C 8.13807 9.49796 8.25 9.38603 8.25 9.24796 C 8.25 9.10988 8.13807 8.99796 8 8.99796" stroke-linecap="round" />
</g>
<g transform="matrix(1 0 0 1 3.88 -2.75)" >
<path style="stroke: rgb(0,0,0); stroke-width: 1; stroke-dasharray: none; stroke-linecap: butt; stroke-dashoffset: 0; stroke-linejoin: miter; stroke-miterlimit: 4; fill: none; fill-rule: nonzero; opacity: 1;" transform=" translate(-15.88, -9.25)" d="M 16 9.49796 C 15.8619 9.49796 15.75 9.38603 15.75 9.24796 C 15.75 9.10988 15.8619 8.99796 16 8.99796" stroke-linecap="round" />
</g>
<g transform="matrix(1 0 0 1 4.13 -2.75)" >
<path style="stroke: rgb(0,0,0); stroke-width: 1; stroke-dasharray: none; stroke-linecap: butt; stroke-dashoffset: 0; stroke-linejoin: miter; stroke-miterlimit: 4; fill: none; fill-rule: nonzero; opacity: 1;" transform=" translate(-16.13, -9.25)" d="M 16 9.49796 C 16.1381 9.49796 16.25 9.38603 16.25 9.24796 C 16.25 9.10988 16.1381 8.99796 16 8.99796" stroke-linecap="round" />
</g>
<g transform="matrix(1 0 0 1 -0.13 7.25)" >
<path style="stroke: rgb(0,0,0); stroke-width: 1; stroke-dasharray: none; stroke-linecap: butt; stroke-dashoffset: 0; stroke-linejoin: miter; stroke-miterlimit: 4; fill: none; fill-rule: nonzero; opacity: 1;" transform=" translate(-11.88, -19.25)" d="M 12 19.498 C 11.8619 19.498 11.75 19.386 11.75 19.248 C 11.75 19.1099 11.8619 18.998 12 18.998" stroke-linecap="round" />
</g>
<g transform="matrix(1 0 0 1 0.13 7.25)" >
<path style="stroke: rgb(0,0,0); stroke-width: 1; stroke-dasharray: none; stroke-linecap: butt; stroke-dashoffset: 0; stroke-linejoin: miter; stroke-miterlimit: 4; fill: none; fill-rule: nonzero; opacity: 1;" transform=" translate(-12.13, -19.25)" d="M 12 19.498 C 12.1381 19.498 12.25 19.386 12.25 19.248 C 12.25 19.1099 12.1381 18.998 12 18.998" stroke-linecap="round" />
</g>
</g>
</g>
</svg>
